<?xml version="1.0" encoding="UTF-8"?>
<svg xmlns="http://www.w3.org/2000/svg" xmlns:xlink="http://www.w3.org/1999/xlink" viewBox="0 0 30 30" width="30px" height="30px">
<g id="surface23200570">
<path style=" stroke:none;fill-rule:nonzero;fill:rgb(100%,100%,100%);fill-opacity:1;" d="M 13.324219 1.199219 C 13.03125 1.199219 12.777344 1.414062 12.730469 1.703125 L 12.148438 5.277344 C 11.445312 5.480469 10.777344 5.753906 10.144531 6.097656 L 7.199219 3.992188 C 6.960938 3.824219 6.632812 3.847656 6.425781 4.054688 L 4.089844 6.386719 C 3.886719 6.59375 3.855469 6.917969 4.023438 7.15625 L 6.097656 10.125 C 5.75 10.757812 5.46875 11.429688 5.257812 12.140625 L 1.703125 12.730469 C 1.414062 12.78125 1.199219 13.03125 1.203125 13.324219 L 1.203125 16.625 C 1.199219 16.914062 1.410156 17.164062 1.695312 17.214844 L 5.253906 17.84375 C 5.464844 18.550781 5.742188 19.226562 6.09375 19.859375 L 3.992188 22.800781 C 3.824219 23.039062 3.847656 23.363281 4.054688 23.570312 L 6.390625 25.90625 C 6.59375 26.109375 6.917969 26.140625 7.15625 25.972656 L 10.128906 23.890625 C 10.761719 24.238281 11.433594 24.515625 12.136719 24.722656 L 12.730469 28.296875 C 12.78125 28.585938 13.03125 28.800781 13.324219 28.800781 L 16.621094 28.800781 C 16.914062 28.800781 17.164062 28.589844 17.214844 28.304688 L 17.851562 24.710938 C 18.550781 24.503906 19.21875 24.222656 19.847656 23.875 L 22.84375 25.976562 C 23.082031 26.140625 23.40625 26.113281 23.609375 25.90625 L 25.945312 23.574219 C 26.152344 23.363281 26.179688 23.035156 26.007812 22.796875 L 23.871094 19.835938 C 24.214844 19.207031 24.488281 18.546875 24.691406 17.847656 L 28.304688 17.214844 C 28.589844 17.164062 28.800781 16.914062 28.796875 16.625 L 28.796875 13.324219 C 28.796875 13.03125 28.585938 12.78125 28.296875 12.734375 L 24.691406 12.144531 C 24.484375 11.449219 24.210938 10.785156 23.867188 10.160156 L 25.972656 7.160156 C 26.140625 6.921875 26.113281 6.597656 25.90625 6.390625 L 23.570312 4.058594 C 23.363281 3.851562 23.035156 3.824219 22.796875 3.996094 L 19.84375 6.121094 C 19.214844 5.773438 18.546875 5.496094 17.84375 5.289062 L 17.214844 1.695312 C 17.164062 1.410156 16.914062 1.199219 16.621094 1.199219 Z M 13.835938 2.398438 L 16.121094 2.398438 L 16.71875 5.8125 C 16.757812 6.046875 16.933594 6.234375 17.164062 6.289062 C 18.039062 6.507812 18.863281 6.855469 19.617188 7.3125 C 19.820312 7.4375 20.082031 7.425781 20.277344 7.285156 L 23.085938 5.265625 L 24.699219 6.882812 L 22.703125 9.734375 C 22.566406 9.925781 22.554688 10.183594 22.679688 10.386719 C 23.128906 11.136719 23.472656 11.957031 23.6875 12.828125 C 23.746094 13.0625 23.9375 13.234375 24.175781 13.273438 L 27.597656 13.835938 L 27.597656 16.121094 L 24.167969 16.722656 C 23.933594 16.765625 23.746094 16.941406 23.6875 17.171875 C 23.472656 18.042969 23.132812 18.859375 22.679688 19.609375 C 22.558594 19.816406 22.566406 20.078125 22.707031 20.269531 L 24.734375 23.085938 L 23.117188 24.703125 L 20.273438 22.707031 C 20.078125 22.570312 19.820312 22.5625 19.617188 22.683594 C 18.871094 23.140625 18.042969 23.488281 17.171875 23.710938 C 16.941406 23.769531 16.765625 23.953125 16.726562 24.1875 L 16.121094 27.601562 L 13.832031 27.601562 L 13.265625 24.203125 C 13.226562 23.964844 13.050781 23.777344 12.820312 23.71875 C 11.941406 23.503906 11.113281 23.15625 10.355469 22.703125 C 10.152344 22.578125 9.898438 22.589844 9.703125 22.726562 L 6.882812 24.703125 L 5.265625 23.082031 L 7.257812 20.292969 C 7.398438 20.097656 7.40625 19.839844 7.28125 19.632812 C 6.824219 18.875 6.476562 18.046875 6.257812 17.164062 C 6.199219 16.9375 6.011719 16.761719 5.78125 16.71875 L 2.402344 16.121094 L 2.402344 13.832031 L 5.777344 13.269531 C 6.011719 13.230469 6.203125 13.054688 6.261719 12.824219 C 6.484375 11.9375 6.828125 11.109375 7.289062 10.351562 C 7.410156 10.148438 7.402344 9.894531 7.265625 9.699219 L 5.296875 6.882812 L 6.914062 5.265625 L 9.710938 7.261719 C 9.90625 7.402344 10.164062 7.410156 10.367188 7.289062 C 11.121094 6.835938 11.953125 6.492188 12.832031 6.277344 C 13.0625 6.21875 13.242188 6.027344 13.28125 5.792969 Z M 15 10.199219 C 12.355469 10.199219 10.199219 12.355469 10.199219 15 C 10.199219 17.644531 12.355469 19.800781 15 19.800781 C 17.644531 19.800781 19.800781 17.644531 19.800781 15 C 19.800781 12.355469 17.644531 10.199219 15 10.199219 Z M 15 11.398438 C 16.996094 11.398438 18.601562 13.003906 18.601562 15 C 18.601562 16.996094 16.996094 18.601562 15 18.601562 C 13.003906 18.601562 11.398438 16.996094 11.398438 15 C 11.398438 13.003906 13.003906 11.398438 15 11.398438 Z M 15 11.398438 "/>
</g>
</svg>
